<?xml version="1.0" encoding="UTF-8"?>
<!DOCTYPE svg
  PUBLIC '-//W3C//DTD SVG 1.1//EN'
  'http://www.w3.org/Graphics/SVG/1.1/DTD/svg11.dtd'>
<svg version="1.1" xmlns="http://www.w3.org/2000/svg" width="117.000mm" height="23.000mm">
    <!--Autogenerated with python-barcode 0.13.1-->
    <g id="barcode_group">
        <rect width="100%" height="100%" style="fill:white"/>
        <rect x="2.540mm" y="1.000mm" width="0.400mm" height="15.000mm" style="fill:black;"/>
        <rect x="2.940mm" y="1.000mm" width="0.200mm" height="15.000mm" style="fill:white;"/>
        <rect x="3.140mm" y="1.000mm" width="0.200mm" height="15.000mm" style="fill:black;"/>
        <rect x="3.340mm" y="1.000mm" width="0.400mm" height="15.000mm" style="fill:white;"/>
        <rect x="3.740mm" y="1.000mm" width="0.200mm" height="15.000mm" style="fill:black;"/>
        <rect x="3.940mm" y="1.000mm" width="0.800mm" height="15.000mm" style="fill:white;"/>
        <rect x="4.740mm" y="1.000mm" width="0.200mm" height="15.000mm" style="fill:black;"/>
        <rect x="4.940mm" y="1.000mm" width="0.400mm" height="15.000mm" style="fill:white;"/>
        <rect x="5.340mm" y="1.000mm" width="0.400mm" height="15.000mm" style="fill:black;"/>
        <rect x="5.740mm" y="1.000mm" width="0.800mm" height="15.000mm" style="fill:white;"/>
        <rect x="6.540mm" y="1.000mm" width="0.200mm" height="15.000mm" style="fill:black;"/>
        <rect x="6.740mm" y="1.000mm" width="0.200mm" height="15.000mm" style="fill:white;"/>
        <rect x="6.940mm" y="1.000mm" width="0.200mm" height="15.000mm" style="fill:black;"/>
        <rect x="7.140mm" y="1.000mm" width="0.400mm" height="15.000mm" style="fill:white;"/>
        <rect x="7.540mm" y="1.000mm" width="0.800mm" height="15.000mm" style="fill:black;"/>
        <rect x="8.340mm" y="1.000mm" width="0.200mm" height="15.000mm" style="fill:white;"/>
        <rect x="8.540mm" y="1.000mm" width="0.200mm" height="15.000mm" style="fill:black;"/>
        <rect x="8.740mm" y="1.000mm" width="0.400mm" height="15.000mm" style="fill:white;"/>
        <rect x="9.140mm" y="1.000mm" width="0.200mm" height="15.000mm" style="fill:black;"/>
        <rect x="9.340mm" y="1.000mm" width="0.400mm" height="15.000mm" style="fill:white;"/>
        <rect x="9.740mm" y="1.000mm" width="0.800mm" height="15.000mm" style="fill:black;"/>
        <rect x="10.540mm" y="1.000mm" width="0.200mm" height="15.000mm" style="fill:white;"/>
        <rect x="10.740mm" y="1.000mm" width="0.200mm" height="15.000mm" style="fill:black;"/>
        <rect x="10.940mm" y="1.000mm" width="0.400mm" height="15.000mm" style="fill:white;"/>
        <rect x="11.340mm" y="1.000mm" width="0.200mm" height="15.000mm" style="fill:black;"/>
        <rect x="11.540mm" y="1.000mm" width="0.200mm" height="15.000mm" style="fill:white;"/>
        <rect x="11.740mm" y="1.000mm" width="0.200mm" height="15.000mm" style="fill:black;"/>
        <rect x="11.940mm" y="1.000mm" width="0.400mm" height="15.000mm" style="fill:white;"/>
        <rect x="12.340mm" y="1.000mm" width="0.800mm" height="15.000mm" style="fill:black;"/>
        <rect x="13.140mm" y="1.000mm" width="0.400mm" height="15.000mm" style="fill:white;"/>
        <rect x="13.540mm" y="1.000mm" width="0.200mm" height="15.000mm" style="fill:black;"/>
        <rect x="13.740mm" y="1.000mm" width="0.200mm" height="15.000mm" style="fill:white;"/>
        <rect x="13.940mm" y="1.000mm" width="0.800mm" height="15.000mm" style="fill:black;"/>
        <rect x="14.740mm" y="1.000mm" width="0.400mm" height="15.000mm" style="fill:white;"/>
        <rect x="15.140mm" y="1.000mm" width="0.200mm" height="15.000mm" style="fill:black;"/>
        <rect x="15.340mm" y="1.000mm" width="0.400mm" height="15.000mm" style="fill:white;"/>
        <rect x="15.740mm" y="1.000mm" width="0.600mm" height="15.000mm" style="fill:black;"/>
        <rect x="16.340mm" y="1.000mm" width="0.400mm" height="15.000mm" style="fill:white;"/>
        <rect x="16.740mm" y="1.000mm" width="0.200mm" height="15.000mm" style="fill:black;"/>
        <rect x="16.940mm" y="1.000mm" width="0.400mm" height="15.000mm" style="fill:white;"/>
        <rect x="17.340mm" y="1.000mm" width="0.400mm" height="15.000mm" style="fill:black;"/>
        <rect x="17.740mm" y="1.000mm" width="0.200mm" height="15.000mm" style="fill:white;"/>
        <rect x="17.940mm" y="1.000mm" width="0.200mm" height="15.000mm" style="fill:black;"/>
        <rect x="18.140mm" y="1.000mm" width="0.200mm" height="15.000mm" style="fill:white;"/>
        <rect x="18.340mm" y="1.000mm" width="0.600mm" height="15.000mm" style="fill:black;"/>
        <rect x="18.940mm" y="1.000mm" width="0.400mm" height="15.000mm" style="fill:white;"/>
        <rect x="19.340mm" y="1.000mm" width="0.400mm" height="15.000mm" style="fill:black;"/>
        <rect x="19.740mm" y="1.000mm" width="0.400mm" height="15.000mm" style="fill:white;"/>
        <rect x="20.140mm" y="1.000mm" width="0.200mm" height="15.000mm" style="fill:black;"/>
        <rect x="20.340mm" y="1.000mm" width="0.200mm" height="15.000mm" style="fill:white;"/>
        <rect x="20.540mm" y="1.000mm" width="0.600mm" height="15.000mm" style="fill:black;"/>
        <rect x="21.140mm" y="1.000mm" width="0.400mm" height="15.000mm" style="fill:white;"/>
        <rect x="21.540mm" y="1.000mm" width="0.400mm" height="15.000mm" style="fill:black;"/>
        <rect x="21.940mm" y="1.000mm" width="0.400mm" height="15.000mm" style="fill:white;"/>
        <rect x="22.340mm" y="1.000mm" width="0.200mm" height="15.000mm" style="fill:black;"/>
        <rect x="22.540mm" y="1.000mm" width="0.800mm" height="15.000mm" style="fill:white;"/>
        <rect x="23.340mm" y="1.000mm" width="0.200mm" height="15.000mm" style="fill:black;"/>
        <rect x="23.540mm" y="1.000mm" width="0.200mm" height="15.000mm" style="fill:white;"/>
        <rect x="23.740mm" y="1.000mm" width="0.400mm" height="15.000mm" style="fill:black;"/>
        <rect x="24.140mm" y="1.000mm" width="0.400mm" height="15.000mm" style="fill:white;"/>
        <rect x="24.540mm" y="1.000mm" width="0.200mm" height="15.000mm" style="fill:black;"/>
        <rect x="24.740mm" y="1.000mm" width="0.400mm" height="15.000mm" style="fill:white;"/>
        <rect x="25.140mm" y="1.000mm" width="0.400mm" height="15.000mm" style="fill:black;"/>
        <rect x="25.540mm" y="1.000mm" width="0.800mm" height="15.000mm" style="fill:white;"/>
        <rect x="26.340mm" y="1.000mm" width="0.200mm" height="15.000mm" style="fill:black;"/>
        <rect x="26.540mm" y="1.000mm" width="0.200mm" height="15.000mm" style="fill:white;"/>
        <rect x="26.740mm" y="1.000mm" width="0.200mm" height="15.000mm" style="fill:black;"/>
        <rect x="26.940mm" y="1.000mm" width="0.400mm" height="15.000mm" style="fill:white;"/>
        <rect x="27.340mm" y="1.000mm" width="0.200mm" height="15.000mm" style="fill:black;"/>
        <rect x="27.540mm" y="1.000mm" width="0.200mm" height="15.000mm" style="fill:white;"/>
        <rect x="27.740mm" y="1.000mm" width="0.400mm" height="15.000mm" style="fill:black;"/>
        <rect x="28.140mm" y="1.000mm" width="0.800mm" height="15.000mm" style="fill:white;"/>
        <rect x="28.940mm" y="1.000mm" width="0.200mm" height="15.000mm" style="fill:black;"/>
        <rect x="29.140mm" y="1.000mm" width="0.400mm" height="15.000mm" style="fill:white;"/>
        <rect x="29.540mm" y="1.000mm" width="0.800mm" height="15.000mm" style="fill:black;"/>
        <rect x="30.340mm" y="1.000mm" width="0.200mm" height="15.000mm" style="fill:white;"/>
        <rect x="30.540mm" y="1.000mm" width="0.200mm" height="15.000mm" style="fill:black;"/>
        <rect x="30.740mm" y="1.000mm" width="0.400mm" height="15.000mm" style="fill:white;"/>
        <rect x="31.140mm" y="1.000mm" width="0.200mm" height="15.000mm" style="fill:black;"/>
        <rect x="31.340mm" y="1.000mm" width="0.400mm" height="15.000mm" style="fill:white;"/>
        <rect x="31.740mm" y="1.000mm" width="0.400mm" height="15.000mm" style="fill:black;"/>
        <rect x="32.140mm" y="1.000mm" width="0.400mm" height="15.000mm" style="fill:white;"/>
        <rect x="32.540mm" y="1.000mm" width="0.600mm" height="15.000mm" style="fill:black;"/>
        <rect x="33.140mm" y="1.000mm" width="0.200mm" height="15.000mm" style="fill:white;"/>
        <rect x="33.340mm" y="1.000mm" width="0.800mm" height="15.000mm" style="fill:black;"/>
        <rect x="34.140mm" y="1.000mm" width="0.400mm" height="15.000mm" style="fill:white;"/>
        <rect x="34.540mm" y="1.000mm" width="0.200mm" height="15.000mm" style="fill:black;"/>
        <rect x="34.740mm" y="1.000mm" width="0.200mm" height="15.000mm" style="fill:white;"/>
        <rect x="34.940mm" y="1.000mm" width="0.200mm" height="15.000mm" style="fill:black;"/>
        <rect x="35.140mm" y="1.000mm" width="0.400mm" height="15.000mm" style="fill:white;"/>
        <rect x="35.540mm" y="1.000mm" width="0.200mm" height="15.000mm" style="fill:black;"/>
        <rect x="35.740mm" y="1.000mm" width="0.400mm" height="15.000mm" style="fill:white;"/>
        <rect x="36.140mm" y="1.000mm" width="0.400mm" height="15.000mm" style="fill:black;"/>
        <rect x="36.540mm" y="1.000mm" width="0.800mm" height="15.000mm" style="fill:white;"/>
        <rect x="37.340mm" y="1.000mm" width="0.200mm" height="15.000mm" style="fill:black;"/>
        <rect x="37.540mm" y="1.000mm" width="0.200mm" height="15.000mm" style="fill:white;"/>
        <rect x="37.740mm" y="1.000mm" width="0.200mm" height="15.000mm" style="fill:black;"/>
        <rect x="37.940mm" y="1.000mm" width="0.400mm" height="15.000mm" style="fill:white;"/>
        <rect x="38.340mm" y="1.000mm" width="0.200mm" height="15.000mm" style="fill:black;"/>
        <rect x="38.540mm" y="1.000mm" width="0.200mm" height="15.000mm" style="fill:white;"/>
        <rect x="38.740mm" y="1.000mm" width="0.400mm" height="15.000mm" style="fill:black;"/>
        <rect x="39.140mm" y="1.000mm" width="0.800mm" height="15.000mm" style="fill:white;"/>
        <rect x="39.940mm" y="1.000mm" width="0.200mm" height="15.000mm" style="fill:black;"/>
        <rect x="40.140mm" y="1.000mm" width="0.400mm" height="15.000mm" style="fill:white;"/>
        <rect x="40.540mm" y="1.000mm" width="0.800mm" height="15.000mm" style="fill:black;"/>
        <rect x="41.340mm" y="1.000mm" width="0.200mm" height="15.000mm" style="fill:white;"/>
        <rect x="41.540mm" y="1.000mm" width="0.200mm" height="15.000mm" style="fill:black;"/>
        <rect x="41.740mm" y="1.000mm" width="0.400mm" height="15.000mm" style="fill:white;"/>
        <rect x="42.140mm" y="1.000mm" width="0.200mm" height="15.000mm" style="fill:black;"/>
        <rect x="42.340mm" y="1.000mm" width="0.200mm" height="15.000mm" style="fill:white;"/>
        <rect x="42.540mm" y="1.000mm" width="0.800mm" height="15.000mm" style="fill:black;"/>
        <rect x="43.340mm" y="1.000mm" width="0.400mm" height="15.000mm" style="fill:white;"/>
        <rect x="43.740mm" y="1.000mm" width="0.200mm" height="15.000mm" style="fill:black;"/>
        <rect x="43.940mm" y="1.000mm" width="0.400mm" height="15.000mm" style="fill:white;"/>
        <rect x="44.340mm" y="1.000mm" width="0.200mm" height="15.000mm" style="fill:black;"/>
        <rect x="44.540mm" y="1.000mm" width="0.400mm" height="15.000mm" style="fill:white;"/>
        <rect x="44.940mm" y="1.000mm" width="0.200mm" height="15.000mm" style="fill:black;"/>
        <rect x="45.140mm" y="1.000mm" width="0.200mm" height="15.000mm" style="fill:white;"/>
        <rect x="45.340mm" y="1.000mm" width="0.400mm" height="15.000mm" style="fill:black;"/>
        <rect x="45.740mm" y="1.000mm" width="0.800mm" height="15.000mm" style="fill:white;"/>
        <rect x="46.540mm" y="1.000mm" width="0.200mm" height="15.000mm" style="fill:black;"/>
        <rect x="46.740mm" y="1.000mm" width="0.200mm" height="15.000mm" style="fill:white;"/>
        <rect x="46.940mm" y="1.000mm" width="0.200mm" height="15.000mm" style="fill:black;"/>
        <rect x="47.140mm" y="1.000mm" width="0.400mm" height="15.000mm" style="fill:white;"/>
        <rect x="47.540mm" y="1.000mm" width="0.800mm" height="15.000mm" style="fill:black;"/>
        <rect x="48.340mm" y="1.000mm" width="0.400mm" height="15.000mm" style="fill:white;"/>
        <rect x="48.740mm" y="1.000mm" width="0.200mm" height="15.000mm" style="fill:black;"/>
        <rect x="48.940mm" y="1.000mm" width="0.200mm" height="15.000mm" style="fill:white;"/>
        <rect x="49.140mm" y="1.000mm" width="0.200mm" height="15.000mm" style="fill:black;"/>
        <rect x="49.340mm" y="1.000mm" width="0.400mm" height="15.000mm" style="fill:white;"/>
        <rect x="49.740mm" y="1.000mm" width="0.800mm" height="15.000mm" style="fill:black;"/>
        <rect x="50.540mm" y="1.000mm" width="0.400mm" height="15.000mm" style="fill:white;"/>
        <rect x="50.940mm" y="1.000mm" width="0.200mm" height="15.000mm" style="fill:black;"/>
        <rect x="51.140mm" y="1.000mm" width="0.400mm" height="15.000mm" style="fill:white;"/>
        <rect x="51.540mm" y="1.000mm" width="0.400mm" height="15.000mm" style="fill:black;"/>
        <rect x="51.940mm" y="1.000mm" width="0.400mm" height="15.000mm" style="fill:white;"/>
        <rect x="52.340mm" y="1.000mm" width="0.600mm" height="15.000mm" style="fill:black;"/>
        <rect x="52.940mm" y="1.000mm" width="0.200mm" height="15.000mm" style="fill:white;"/>
        <rect x="53.140mm" y="1.000mm" width="0.200mm" height="15.000mm" style="fill:black;"/>
        <rect x="53.340mm" y="1.000mm" width="0.800mm" height="15.000mm" style="fill:white;"/>
        <rect x="54.140mm" y="1.000mm" width="0.200mm" height="15.000mm" style="fill:black;"/>
        <rect x="54.340mm" y="1.000mm" width="0.200mm" height="15.000mm" style="fill:white;"/>
        <rect x="54.540mm" y="1.000mm" width="0.400mm" height="15.000mm" style="fill:black;"/>
        <rect x="54.940mm" y="1.000mm" width="0.400mm" height="15.000mm" style="fill:white;"/>
        <rect x="55.340mm" y="1.000mm" width="0.200mm" height="15.000mm" style="fill:black;"/>
        <rect x="55.540mm" y="1.000mm" width="0.600mm" height="15.000mm" style="fill:white;"/>
        <rect x="56.140mm" y="1.000mm" width="0.800mm" height="15.000mm" style="fill:black;"/>
        <rect x="56.940mm" y="1.000mm" width="0.200mm" height="15.000mm" style="fill:white;"/>
        <rect x="57.140mm" y="1.000mm" width="0.200mm" height="15.000mm" style="fill:black;"/>
        <rect x="57.340mm" y="1.000mm" width="0.200mm" height="15.000mm" style="fill:white;"/>
        <rect x="57.540mm" y="1.000mm" width="0.800mm" height="15.000mm" style="fill:black;"/>
        <rect x="58.340mm" y="1.000mm" width="0.200mm" height="15.000mm" style="fill:white;"/>
        <rect x="58.540mm" y="1.000mm" width="0.600mm" height="15.000mm" style="fill:black;"/>
        <rect x="59.140mm" y="1.000mm" width="0.200mm" height="15.000mm" style="fill:white;"/>
        <rect x="59.340mm" y="1.000mm" width="0.200mm" height="15.000mm" style="fill:black;"/>
        <rect x="59.540mm" y="1.000mm" width="0.200mm" height="15.000mm" style="fill:white;"/>
        <rect x="59.740mm" y="1.000mm" width="0.200mm" height="15.000mm" style="fill:black;"/>
        <rect x="59.940mm" y="1.000mm" width="0.200mm" height="15.000mm" style="fill:white;"/>
        <rect x="60.140mm" y="1.000mm" width="0.600mm" height="15.000mm" style="fill:black;"/>
        <rect x="60.740mm" y="1.000mm" width="0.400mm" height="15.000mm" style="fill:white;"/>
        <rect x="61.140mm" y="1.000mm" width="0.400mm" height="15.000mm" style="fill:black;"/>
        <rect x="61.540mm" y="1.000mm" width="0.400mm" height="15.000mm" style="fill:white;"/>
        <rect x="61.940mm" y="1.000mm" width="0.400mm" height="15.000mm" style="fill:black;"/>
        <rect x="62.340mm" y="1.000mm" width="0.600mm" height="15.000mm" style="fill:white;"/>
        <rect x="62.940mm" y="1.000mm" width="0.200mm" height="15.000mm" style="fill:black;"/>
        <rect x="63.140mm" y="1.000mm" width="0.600mm" height="15.000mm" style="fill:white;"/>
        <rect x="63.740mm" y="1.000mm" width="0.200mm" height="15.000mm" style="fill:black;"/>
        <rect x="63.940mm" y="1.000mm" width="0.200mm" height="15.000mm" style="fill:white;"/>
        <rect x="64.140mm" y="1.000mm" width="0.600mm" height="15.000mm" style="fill:black;"/>
        <rect x="64.740mm" y="1.000mm" width="0.200mm" height="15.000mm" style="fill:white;"/>
        <rect x="64.940mm" y="1.000mm" width="0.200mm" height="15.000mm" style="fill:black;"/>
        <rect x="65.140mm" y="1.000mm" width="0.400mm" height="15.000mm" style="fill:white;"/>
        <rect x="65.540mm" y="1.000mm" width="0.400mm" height="15.000mm" style="fill:black;"/>
        <rect x="65.940mm" y="1.000mm" width="0.400mm" height="15.000mm" style="fill:white;"/>
        <rect x="66.340mm" y="1.000mm" width="0.800mm" height="15.000mm" style="fill:black;"/>
        <rect x="67.140mm" y="1.000mm" width="0.400mm" height="15.000mm" style="fill:white;"/>
        <rect x="67.540mm" y="1.000mm" width="0.200mm" height="15.000mm" style="fill:black;"/>
        <rect x="67.740mm" y="1.000mm" width="0.400mm" height="15.000mm" style="fill:white;"/>
        <rect x="68.140mm" y="1.000mm" width="0.200mm" height="15.000mm" style="fill:black;"/>
        <rect x="68.340mm" y="1.000mm" width="0.200mm" height="15.000mm" style="fill:white;"/>
        <rect x="68.540mm" y="1.000mm" width="0.200mm" height="15.000mm" style="fill:black;"/>
        <rect x="68.740mm" y="1.000mm" width="0.200mm" height="15.000mm" style="fill:white;"/>
        <rect x="68.940mm" y="1.000mm" width="0.400mm" height="15.000mm" style="fill:black;"/>
        <rect x="69.340mm" y="1.000mm" width="0.400mm" height="15.000mm" style="fill:white;"/>
        <rect x="69.740mm" y="1.000mm" width="0.200mm" height="15.000mm" style="fill:black;"/>
        <rect x="69.940mm" y="1.000mm" width="0.800mm" height="15.000mm" style="fill:white;"/>
        <rect x="70.740mm" y="1.000mm" width="0.200mm" height="15.000mm" style="fill:black;"/>
        <rect x="70.940mm" y="1.000mm" width="0.400mm" height="15.000mm" style="fill:white;"/>
        <rect x="71.340mm" y="1.000mm" width="0.200mm" height="15.000mm" style="fill:black;"/>
        <rect x="71.540mm" y="1.000mm" width="0.400mm" height="15.000mm" style="fill:white;"/>
        <rect x="71.940mm" y="1.000mm" width="0.800mm" height="15.000mm" style="fill:black;"/>
        <rect x="72.740mm" y="1.000mm" width="0.200mm" height="15.000mm" style="fill:white;"/>
        <rect x="72.940mm" y="1.000mm" width="0.600mm" height="15.000mm" style="fill:black;"/>
        <rect x="73.540mm" y="1.000mm" width="0.200mm" height="15.000mm" style="fill:white;"/>
        <rect x="73.740mm" y="1.000mm" width="0.200mm" height="15.000mm" style="fill:black;"/>
        <rect x="73.940mm" y="1.000mm" width="0.600mm" height="15.000mm" style="fill:white;"/>
        <rect x="74.540mm" y="1.000mm" width="0.400mm" height="15.000mm" style="fill:black;"/>
        <rect x="74.940mm" y="1.000mm" width="0.200mm" height="15.000mm" style="fill:white;"/>
        <rect x="75.140mm" y="1.000mm" width="0.400mm" height="15.000mm" style="fill:black;"/>
        <rect x="75.540mm" y="1.000mm" width="0.400mm" height="15.000mm" style="fill:white;"/>
        <rect x="75.940mm" y="1.000mm" width="0.600mm" height="15.000mm" style="fill:black;"/>
        <rect x="76.540mm" y="1.000mm" width="0.200mm" height="15.000mm" style="fill:white;"/>
        <rect x="76.740mm" y="1.000mm" width="0.200mm" height="15.000mm" style="fill:black;"/>
        <rect x="76.940mm" y="1.000mm" width="0.400mm" height="15.000mm" style="fill:white;"/>
        <rect x="77.340mm" y="1.000mm" width="0.200mm" height="15.000mm" style="fill:black;"/>
        <rect x="77.540mm" y="1.000mm" width="0.200mm" height="15.000mm" style="fill:white;"/>
        <rect x="77.740mm" y="1.000mm" width="0.200mm" height="15.000mm" style="fill:black;"/>
        <rect x="77.940mm" y="1.000mm" width="0.600mm" height="15.000mm" style="fill:white;"/>
        <rect x="78.540mm" y="1.000mm" width="0.400mm" height="15.000mm" style="fill:black;"/>
        <rect x="78.940mm" y="1.000mm" width="0.600mm" height="15.000mm" style="fill:white;"/>
        <rect x="79.540mm" y="1.000mm" width="0.200mm" height="15.000mm" style="fill:black;"/>
        <rect x="79.740mm" y="1.000mm" width="0.400mm" height="15.000mm" style="fill:white;"/>
        <rect x="80.140mm" y="1.000mm" width="0.200mm" height="15.000mm" style="fill:black;"/>
        <rect x="80.340mm" y="1.000mm" width="0.800mm" height="15.000mm" style="fill:white;"/>
        <rect x="81.140mm" y="1.000mm" width="0.400mm" height="15.000mm" style="fill:black;"/>
        <rect x="81.540mm" y="1.000mm" width="0.200mm" height="15.000mm" style="fill:white;"/>
        <rect x="81.740mm" y="1.000mm" width="0.800mm" height="15.000mm" style="fill:black;"/>
        <rect x="82.540mm" y="1.000mm" width="0.400mm" height="15.000mm" style="fill:white;"/>
        <rect x="82.940mm" y="1.000mm" width="0.200mm" height="15.000mm" style="fill:black;"/>
        <rect x="83.140mm" y="1.000mm" width="0.400mm" height="15.000mm" style="fill:white;"/>
        <rect x="83.540mm" y="1.000mm" width="0.200mm" height="15.000mm" style="fill:black;"/>
        <rect x="83.740mm" y="1.000mm" width="0.200mm" height="15.000mm" style="fill:white;"/>
        <rect x="83.940mm" y="1.000mm" width="0.200mm" height="15.000mm" style="fill:black;"/>
        <rect x="84.140mm" y="1.000mm" width="0.200mm" height="15.000mm" style="fill:white;"/>
        <rect x="84.340mm" y="1.000mm" width="0.200mm" height="15.000mm" style="fill:black;"/>
        <rect x="84.540mm" y="1.000mm" width="0.600mm" height="15.000mm" style="fill:white;"/>
        <rect x="85.140mm" y="1.000mm" width="0.400mm" height="15.000mm" style="fill:black;"/>
        <rect x="85.540mm" y="1.000mm" width="0.600mm" height="15.000mm" style="fill:white;"/>
        <rect x="86.140mm" y="1.000mm" width="0.200mm" height="15.000mm" style="fill:black;"/>
        <rect x="86.340mm" y="1.000mm" width="0.600mm" height="15.000mm" style="fill:white;"/>
        <rect x="86.940mm" y="1.000mm" width="0.400mm" height="15.000mm" style="fill:black;"/>
        <rect x="87.340mm" y="1.000mm" width="0.600mm" height="15.000mm" style="fill:white;"/>
        <rect x="87.940mm" y="1.000mm" width="0.200mm" height="15.000mm" style="fill:black;"/>
        <rect x="88.140mm" y="1.000mm" width="0.200mm" height="15.000mm" style="fill:white;"/>
        <rect x="88.340mm" y="1.000mm" width="0.200mm" height="15.000mm" style="fill:black;"/>
        <rect x="88.540mm" y="1.000mm" width="0.600mm" height="15.000mm" style="fill:white;"/>
        <rect x="89.140mm" y="1.000mm" width="0.400mm" height="15.000mm" style="fill:black;"/>
        <rect x="89.540mm" y="1.000mm" width="0.200mm" height="15.000mm" style="fill:white;"/>
        <rect x="89.740mm" y="1.000mm" width="0.600mm" height="15.000mm" style="fill:black;"/>
        <rect x="90.340mm" y="1.000mm" width="0.200mm" height="15.000mm" style="fill:white;"/>
        <rect x="90.540mm" y="1.000mm" width="0.400mm" height="15.000mm" style="fill:black;"/>
        <rect x="90.940mm" y="1.000mm" width="0.800mm" height="15.000mm" style="fill:white;"/>
        <rect x="91.740mm" y="1.000mm" width="0.200mm" height="15.000mm" style="fill:black;"/>
        <rect x="91.940mm" y="1.000mm" width="0.400mm" height="15.000mm" style="fill:white;"/>
        <rect x="92.340mm" y="1.000mm" width="0.200mm" height="15.000mm" style="fill:black;"/>
        <rect x="92.540mm" y="1.000mm" width="0.200mm" height="15.000mm" style="fill:white;"/>
        <rect x="92.740mm" y="1.000mm" width="0.400mm" height="15.000mm" style="fill:black;"/>
        <rect x="93.140mm" y="1.000mm" width="0.200mm" height="15.000mm" style="fill:white;"/>
        <rect x="93.340mm" y="1.000mm" width="0.800mm" height="15.000mm" style="fill:black;"/>
        <rect x="94.140mm" y="1.000mm" width="0.200mm" height="15.000mm" style="fill:white;"/>
        <rect x="94.340mm" y="1.000mm" width="0.400mm" height="15.000mm" style="fill:black;"/>
        <rect x="94.740mm" y="1.000mm" width="0.200mm" height="15.000mm" style="fill:white;"/>
        <rect x="94.940mm" y="1.000mm" width="0.200mm" height="15.000mm" style="fill:black;"/>
        <rect x="95.140mm" y="1.000mm" width="0.200mm" height="15.000mm" style="fill:white;"/>
        <rect x="95.340mm" y="1.000mm" width="0.600mm" height="15.000mm" style="fill:black;"/>
        <rect x="95.940mm" y="1.000mm" width="0.600mm" height="15.000mm" style="fill:white;"/>
        <rect x="96.540mm" y="1.000mm" width="0.400mm" height="15.000mm" style="fill:black;"/>
        <rect x="96.940mm" y="1.000mm" width="0.200mm" height="15.000mm" style="fill:white;"/>
        <rect x="97.140mm" y="1.000mm" width="0.200mm" height="15.000mm" style="fill:black;"/>
        <rect x="97.340mm" y="1.000mm" width="0.200mm" height="15.000mm" style="fill:white;"/>
        <rect x="97.540mm" y="1.000mm" width="0.600mm" height="15.000mm" style="fill:black;"/>
        <rect x="98.140mm" y="1.000mm" width="0.200mm" height="15.000mm" style="fill:white;"/>
        <rect x="98.340mm" y="1.000mm" width="0.400mm" height="15.000mm" style="fill:black;"/>
        <rect x="98.740mm" y="1.000mm" width="0.600mm" height="15.000mm" style="fill:white;"/>
        <rect x="99.340mm" y="1.000mm" width="0.200mm" height="15.000mm" style="fill:black;"/>
        <rect x="99.540mm" y="1.000mm" width="0.400mm" height="15.000mm" style="fill:white;"/>
        <rect x="99.940mm" y="1.000mm" width="0.600mm" height="15.000mm" style="fill:black;"/>
        <rect x="100.540mm" y="1.000mm" width="0.400mm" height="15.000mm" style="fill:white;"/>
        <rect x="100.940mm" y="1.000mm" width="0.400mm" height="15.000mm" style="fill:black;"/>
        <rect x="101.340mm" y="1.000mm" width="0.200mm" height="15.000mm" style="fill:white;"/>
        <rect x="101.540mm" y="1.000mm" width="0.200mm" height="15.000mm" style="fill:black;"/>
        <rect x="101.740mm" y="1.000mm" width="0.400mm" height="15.000mm" style="fill:white;"/>
        <rect x="102.140mm" y="1.000mm" width="0.800mm" height="15.000mm" style="fill:black;"/>
        <rect x="102.940mm" y="1.000mm" width="0.200mm" height="15.000mm" style="fill:white;"/>
        <rect x="103.140mm" y="1.000mm" width="0.200mm" height="15.000mm" style="fill:black;"/>
        <rect x="103.340mm" y="1.000mm" width="0.400mm" height="15.000mm" style="fill:white;"/>
        <rect x="103.740mm" y="1.000mm" width="0.600mm" height="15.000mm" style="fill:black;"/>
        <rect x="104.340mm" y="1.000mm" width="0.200mm" height="15.000mm" style="fill:white;"/>
        <rect x="104.540mm" y="1.000mm" width="0.200mm" height="15.000mm" style="fill:black;"/>
        <rect x="104.740mm" y="1.000mm" width="0.600mm" height="15.000mm" style="fill:white;"/>
        <rect x="105.340mm" y="1.000mm" width="0.400mm" height="15.000mm" style="fill:black;"/>
        <rect x="105.740mm" y="1.000mm" width="0.200mm" height="15.000mm" style="fill:white;"/>
        <rect x="105.940mm" y="1.000mm" width="0.200mm" height="15.000mm" style="fill:black;"/>
        <rect x="106.140mm" y="1.000mm" width="0.600mm" height="15.000mm" style="fill:white;"/>
        <rect x="106.740mm" y="1.000mm" width="0.400mm" height="15.000mm" style="fill:black;"/>
        <rect x="107.140mm" y="1.000mm" width="0.600mm" height="15.000mm" style="fill:white;"/>
        <rect x="107.740mm" y="1.000mm" width="0.200mm" height="15.000mm" style="fill:black;"/>
        <rect x="107.940mm" y="1.000mm" width="0.200mm" height="15.000mm" style="fill:white;"/>
        <rect x="108.140mm" y="1.000mm" width="0.200mm" height="15.000mm" style="fill:black;"/>
        <rect x="108.340mm" y="1.000mm" width="0.200mm" height="15.000mm" style="fill:white;"/>
        <rect x="108.540mm" y="1.000mm" width="0.800mm" height="15.000mm" style="fill:black;"/>
        <rect x="109.340mm" y="1.000mm" width="0.400mm" height="15.000mm" style="fill:white;"/>
        <rect x="109.740mm" y="1.000mm" width="0.200mm" height="15.000mm" style="fill:black;"/>
        <rect x="109.940mm" y="1.000mm" width="0.400mm" height="15.000mm" style="fill:white;"/>
        <rect x="110.340mm" y="1.000mm" width="0.400mm" height="15.000mm" style="fill:black;"/>
        <rect x="110.740mm" y="1.000mm" width="0.400mm" height="15.000mm" style="fill:white;"/>
        <rect x="111.140mm" y="1.000mm" width="0.400mm" height="15.000mm" style="fill:black;"/>
        <rect x="111.540mm" y="1.000mm" width="0.400mm" height="15.000mm" style="fill:white;"/>
        <rect x="111.940mm" y="1.000mm" width="0.400mm" height="15.000mm" style="fill:black;"/>
        <rect x="112.340mm" y="1.000mm" width="0.200mm" height="15.000mm" style="fill:white;"/>
        <rect x="112.540mm" y="1.000mm" width="0.400mm" height="15.000mm" style="fill:black;"/>
        <rect x="112.940mm" y="1.000mm" width="0.600mm" height="15.000mm" style="fill:white;"/>
        <rect x="113.540mm" y="1.000mm" width="0.600mm" height="15.000mm" style="fill:black;"/>
        <rect x="114.140mm" y="1.000mm" width="0.200mm" height="15.000mm" style="fill:white;"/>
        <rect x="114.340mm" y="1.000mm" width="0.200mm" height="15.000mm" style="fill:black;"/>
        <rect x="114.540mm" y="1.000mm" width="0.200mm" height="15.000mm" style="fill:white;"/>
        <rect x="114.740mm" y="1.000mm" width="0.400mm" height="15.000mm" style="fill:black;"/>
        <text x="58.840mm" y="21.000mm" style="fill:black;font-size:10pt;text-anchor:middle;">https://chat.whatsapp.com/I8xerW6AbxAFLkzNM1tWFs</text>
    </g>
</svg>
